<?xml version="1.0" encoding="utf-8"?>
<!-- Generator: Adobe Illustrator 18.1.1, SVG Export Plug-In . SVG Version: 6.00 Build 0)  -->
<svg version="1.1" id="Layer_1" xmlns="http://www.w3.org/2000/svg" xmlns:xlink="http://www.w3.org/1999/xlink" x="0px" y="0px"
	 viewBox="0 123.3 595.3 595.3" enable-background="new 0 123.3 595.3 595.3" xml:space="preserve">
<g id="XMLID_837_" opacity="0.6">
	<g>
		<g>
			<path fill="#FFFFFF" d="M297.6,718.6c164.1,0,297.6-133.5,297.6-297.6S461.8,123.3,297.6,123.3S0,256.8,0,420.9
				S133.5,718.6,297.6,718.6z M297.6,156.4c145.9,0,264.6,118.7,264.6,264.6S443.5,685.5,297.6,685.5S33.1,566.8,33.1,420.9
				S151.8,156.4,297.6,156.4z"/>
			<path fill="#FFFFFF" d="M330.4,586.3v-83.6l119.5,83.6V255.5l-119.5,83.6v-83.6L94.1,420.9L330.4,586.3z M416.9,319.1v203.8
				l-145.6-102L416.9,319.1z M297.4,362.3l-83.8,58.6l83.8,58.6v43.3L151.8,420.9L297.4,319L297.4,362.3L297.4,362.3z"/>
		</g>
	</g>
</g>
</svg>
