<?xml version="1.0" encoding="utf-8"?>
<!-- Generator: Adobe Illustrator 18.1.1, SVG Export Plug-In . SVG Version: 6.00 Build 0)  -->
<svg version="1.1" id="Layer_1" xmlns="http://www.w3.org/2000/svg" xmlns:xlink="http://www.w3.org/1999/xlink" x="0px" y="0px"
	 viewBox="0 123.4 595.3 595" enable-background="new 0 123.4 595.3 595" xml:space="preserve">
<g id="XMLID_837_" opacity="0.6">
	<g>
		<g>
			<path fill="#FFFFFF" d="M297.6,123.4C133.5,123.4,0,256.9,0,420.9s133.5,297.6,297.6,297.6S595.2,585,595.2,420.9
				S461.8,123.4,297.6,123.4z M297.6,685.5C151.7,685.5,33,566.8,33,420.9s118.7-264.6,264.6-264.6S562.2,275,562.2,420.9
				S443.5,685.5,297.6,685.5z"/>
			<path fill="#FFFFFF" d="M264.8,255.6v83.6l-119.5-83.6v330.8l119.5-83.6v83.6l236.3-165.4L264.8,255.6z M178.4,522.8V319.1
				L324,420.9L178.4,522.8z M297.9,479.6l83.8-58.6l-83.8-58.6v-43.3L443.5,421L297.9,522.8V479.6L297.9,479.6z"/>
		</g>
	</g>
</g>
</svg>
